<?xml version="1.0" encoding="UTF-8"?>
<svg version="1.1" xmlns="http://www.w3.org/2000/svg" width="1024" height="1024">
<path d="M0 0 C337.92 0 675.84 0 1024 0 C1024 337.92 1024 675.84 1024 1024 C686.08 1024 348.16 1024 0 1024 C0 686.08 0 348.16 0 0 Z " fill="#F0EFF0" transform="translate(0,0)"/>
<path d="M0 0 C69.58293839 0 69.58293839 0 89 17 C100.66830008 28.7875672 106.91633862 44.48072968 107.375 60.9375 C106.93388122 78.96321741 100.91796293 94.66851993 87.875 107.25 C63.27752767 127.93906568 29.90551903 122 0 122 C0 81.74 0 41.48 0 0 Z " fill="#01244E" transform="translate(205,367)"/>
<path d="M0 0 C5.42238533 2.14373373 9.48664091 6.97951249 12.06738281 12.13037109 C14.79144652 18.82550811 16.3707006 25.46698269 17.6875 32.5625 C17.93169678 33.8410083 18.17589355 35.1195166 18.42749023 36.43676758 C20.20669031 45.93087764 21.72516629 55.46396317 23.2109375 65.0078125 C23.40446304 66.24891281 23.59798859 67.49001312 23.79737854 68.76872253 C24.76974899 75.02449921 25.72773967 81.28204911 26.66479492 87.54321289 C28.29998088 98.32612007 30.03126645 109.01990449 32.65234375 119.61328125 C32.85686661 120.44361374 33.06138947 121.27394623 33.27210999 122.12944031 C34.3538302 126.48003002 34.3538302 126.48003002 37 130 C43.19956713 116.80549324 47.25904556 102.96999324 51.54370117 89.06591797 C52.50255759 85.96358052 53.47165028 82.86456952 54.44140625 79.765625 C54.86662315 78.36682098 54.86662315 78.36682098 55.3004303 76.9397583 C60.89175496 59.1029921 60.89175496 59.1029921 67.98828125 54.77734375 C73.52852074 52.63655218 79.16377546 53.40366465 84.625 55.4375 C93.64516913 60.05062692 98.03626477 68.30129731 102.12329102 77.15136719 C105.71319519 85.26475983 105.71319519 85.26475983 112 91 C114.32243821 91.10065213 116.64780215 91.13562918 118.97241211 91.1418457 C119.68964951 91.14532013 120.4068869 91.14879456 121.14585876 91.15237427 C122.70531881 91.15973276 124.26478934 91.16507765 125.82426262 91.16866493 C128.29109615 91.17582115 130.75772969 91.19148032 133.22450256 91.21000671 C140.23875214 91.26252267 147.25289194 91.31047848 154.26733398 91.32592773 C158.55571543 91.33599318 162.84359385 91.36527884 167.13177681 91.40724754 C168.76762658 91.41958177 170.40354731 91.42467439 172.03944206 91.42244911 C174.32624128 91.42010351 176.61158982 91.44220228 178.89819336 91.4699707 C180.20010117 91.47583694 181.50200897 91.48170319 182.84336853 91.48774719 C186 92 186 92 187.91261292 93.81828308 C189.55244773 97.10842274 189.50817828 99.37922972 189 103 C186.34926379 106.44521594 184.85656447 107.84133265 180.53607178 108.64164734 C179.19336839 108.67416957 177.8498294 108.67953447 176.50683594 108.6628418 C175.76953751 108.67320969 175.03223907 108.68357758 174.27259827 108.69425964 C171.84261888 108.72129363 169.41445003 108.71167335 166.984375 108.69921875 C165.28671773 108.70513128 163.58906463 108.71237952 161.89141846 108.72090149 C158.33380411 108.73277746 154.77681546 108.7260857 151.21923828 108.70678711 C146.67839773 108.68396372 142.13943648 108.71060862 137.59878159 108.75184917 C134.09146598 108.77753797 130.58459289 108.77481634 127.0772171 108.76395607 C125.40440419 108.76247697 123.73155606 108.770071 122.05883026 108.78720665 C106.32863772 108.92213412 106.32863772 108.92213412 99.64483643 103.65803528 C93.57862362 97.54314465 90.01827102 89.45241591 86.15820312 81.85229492 C85.79275391 81.14049072 85.42730469 80.42868652 85.05078125 79.6953125 C84.72762939 79.05609863 84.40447754 78.41688477 84.0715332 77.75830078 C82.90022756 75.83628137 81.72304826 74.44787941 80 73 C77.46285686 72.60508102 77.46285686 72.60508102 75 74 C71.57436348 79.18520829 69.7890402 85.25472838 68.01171875 91.15234375 C67.46419961 92.91731985 66.91667333 94.68229373 66.36914062 96.44726562 C65.53141557 99.17747556 64.69635756 101.90848422 63.86254883 104.63989258 C60.99027526 114.01810051 58.04922932 123.33384175 54.39453125 132.44140625 C54.1284758 133.12073715 53.86242035 133.80006805 53.58830261 134.49998474 C51.23956515 140.15593785 48.28945551 144.38697452 43.25 147.9375 C38.86282824 149.37176769 35.42600374 149.27932963 31 148 C21.42756126 142.0398023 18.97858955 130.3057823 16.50921631 119.93977356 C14.03300792 108.92143233 12.1091097 97.87499207 10.53356934 86.69577026 C8.39162601 71.55804859 5.95498494 56.48445912 3.25 41.4375 C3.10138519 40.60375854 2.95277039 39.77001709 2.7996521 38.91101074 C2.37628885 36.54266918 1.94724159 34.1754437 1.515625 31.80859375 C1.39188004 31.11863815 1.26813507 30.42868256 1.14064026 29.71781921 C0.33752902 25.38056344 -0.73221683 21.21808008 -2 17 C-3.485 17.495 -3.485 17.495 -5 18 C-9.32082661 27.66333157 -10.85255406 38.99364477 -13 49.3125 C-14.91711781 58.46280595 -16.83965144 67.60975346 -19.046875 76.6953125 C-19.34432617 77.9239502 -19.64177734 79.15258789 -19.94824219 80.41845703 C-23.2916137 91.80361489 -28.48130745 100.59140729 -38.8046875 106.64453125 C-44.26619949 108.88520757 -50.26078508 108.52048729 -56.07080078 108.50097656 C-58.1280281 108.49999856 -60.18158563 108.54181292 -62.23828125 108.5859375 C-63.54410156 108.58851563 -64.84992187 108.59109375 -66.1953125 108.59375 C-67.38141113 108.60083984 -68.56750977 108.60792969 -69.78955078 108.61523438 C-73.93931889 107.81999364 -75.42069211 106.28308109 -78 103 C-78.5625 99.4375 -78.5625 99.4375 -78 96 C-75.80532828 93.04973699 -74.65097827 92.10053495 -70.97900391 91.53344727 C-69.82319824 91.54432373 -68.66739258 91.5552002 -67.4765625 91.56640625 C-66.208125 91.55673828 -64.9396875 91.54707031 -63.6328125 91.53710938 C-60.96860968 91.54851994 -58.30476231 91.57479633 -55.640625 91.59960938 C-48.12800035 91.81592055 -48.12800035 91.81592055 -41.3359375 89.15234375 C-35.71407447 81.56564899 -34.07660901 71.94266344 -32.0625 62.875 C-31.80726563 61.75625488 -31.55203125 60.63750977 -31.2890625 59.48486328 C-29.7603189 52.69963749 -28.38924639 45.89692985 -27.10327148 39.06201172 C-21.78106993 10.94545198 -21.78106993 10.94545198 -13 3 C-12.4225 2.401875 -11.845 1.80375 -11.25 1.1875 C-7.60784438 -0.7347488 -4.02376631 -0.51382627 0 0 Z " fill="#02244E" transform="translate(633,517)"/>
<path d="M0 0 C6.27 0 12.54 0 19 0 C19 16.17 19 32.34 19 49 C19.66 49 20.32 49 21 49 C21.2578125 48.401875 21.515625 47.80375 21.78125 47.1875 C24.97369709 41.45746677 32.04770977 37.87844691 38.0390625 35.703125 C48.06976781 33.32116332 57.41011876 33.94001529 66.38671875 39.1875 C76.20782862 45.99915169 82.31530891 55.90940982 85.4375 67.4375 C87.72299668 81.35591799 86.26419087 99.04551007 78 111 C72.30632804 118.78576537 66.10037664 122.96654112 57 126 C44.74240192 126.99317974 34.78987866 126.55057978 24.9375 118.265625 C23.25 116.625 23.25 116.625 21 114 C20.01 118.95 20.01 118.95 19 124 C12.73 124 6.46 124 0 124 C0 83.08 0 42.16 0 0 Z " fill="#01244E" transform="translate(386,513)"/>
<path d="M0 0 C0.78246094 0.42410156 1.56492187 0.84820312 2.37109375 1.28515625 C13.41357934 7.97023606 19.58314986 17.83228232 23.64453125 29.91796875 C25.99595617 43.6906004 23.43235589 57.34240497 16.0859375 69.16796875 C8.91993328 78.89709433 -0.17669314 84.81670437 -12 87 C-27.03212982 88.4333471 -40.00557235 86.78672465 -52 77 C-60.88798281 68.86028679 -66.42486036 57.33952479 -67.25 45.375 C-67.81106012 31.51881886 -64.28339497 19.0130145 -54.77734375 8.5546875 C-40.90522841 -4.76781947 -17.42972133 -9.59681054 0 0 Z " fill="#02254F" transform="translate(389,404)"/>
<path d="M0 0 C0.78246094 0.42410156 1.56492187 0.84820312 2.37109375 1.28515625 C11.69134661 6.92760276 17.89731188 14.99770996 22 25 C22.36480469 25.88171875 22.72960937 26.7634375 23.10546875 27.671875 C26.37286029 39.82828372 25.12327581 54.0264452 19 65 C17.21486465 67.90820127 15.27553933 70.46103617 13 73 C12.47664062 73.61488281 11.95328125 74.22976563 11.4140625 74.86328125 C4.45872145 82.48803305 -5.37381646 86.84580153 -15.671875 87.3359375 C-25.0441436 87.50272667 -33.55436208 87.57947597 -42 83 C-42.78375 82.57589844 -43.5675 82.15179688 -44.375 81.71484375 C-54.7783317 75.40606659 -61.1697855 66.15181502 -65.109375 54.8046875 C-68.32510406 41.06731862 -66.65046434 27.28264997 -59.25 15.3125 C-53.45898034 7.21955002 -47.27178819 1.74940651 -38 -2 C-36.67935547 -2.54914063 -36.67935547 -2.54914063 -35.33203125 -3.109375 C-24.35167182 -6.04433625 -10.00196506 -5.50708539 0 0 Z " fill="#01244F" transform="translate(764,404)"/>
<path d="M0 0 C9.88461223 10.59065597 10.92961598 21.23322544 10.8203125 35.15625 C10.81657576 36.53486932 10.81373191 37.91349132 10.81173706 39.29211426 C10.80415258 42.89570634 10.78454962 46.49913355 10.7623291 50.10266113 C10.74175802 53.78977225 10.73271142 57.47691037 10.72265625 61.1640625 C10.70129799 68.38029169 10.66615915 75.59635161 10.625 82.8125 C3.695 82.8125 -3.235 82.8125 -10.375 82.8125 C-10.3843457 81.03157959 -10.39369141 79.25065918 -10.40332031 77.41577148 C-10.43893155 71.51235077 -10.49278283 65.60924555 -10.55890274 59.70609951 C-10.59830663 56.12916241 -10.63052932 52.55246885 -10.64599609 48.9753418 C-10.66121021 45.51909185 -10.69573768 42.06351178 -10.74330902 38.60756111 C-10.76522927 36.65631949 -10.76746965 34.70488862 -10.76934814 32.75352478 C-10.88139713 25.93058257 -11.16040045 21.30032055 -15.375 15.8125 C-19.92857999 12.28347551 -24.81963832 12.24306109 -30.39453125 12.40234375 C-34.84191644 13.01436924 -38.32594679 14.46956214 -41.375 17.8125 C-45.09052719 24.38345724 -44.84826932 30.76709535 -44.88671875 38.18359375 C-44.91364555 40.09979271 -44.91364555 40.09979271 -44.94111633 42.05470276 C-44.98596632 45.42978331 -45.01834057 48.80450532 -45.04455566 52.17974854 C-45.07448167 55.63233415 -45.12097018 59.08469378 -45.16601562 62.53710938 C-45.2508575 69.2954885 -45.31770975 76.05383344 -45.375 82.8125 C-51.975 82.8125 -58.575 82.8125 -65.375 82.8125 C-65.38958252 81.12769531 -65.40416504 79.44289063 -65.41918945 77.70703125 C-65.47101923 72.11496979 -65.53635222 66.52317289 -65.61071491 60.93136597 C-65.65527556 57.54394958 -65.69456199 54.1566495 -65.72143555 50.76904297 C-65.75508992 46.86656748 -65.80741401 42.96471308 -65.86328125 39.0625 C-65.86967117 37.85698486 -65.8760611 36.65146973 -65.88264465 35.40942383 C-66.0141317 27.83288007 -66.15295453 20.95399433 -71.875 15.375 C-77.34139968 11.9585002 -83.11903079 12.14646525 -89.375 12.8125 C-93.50864607 14.11716124 -96.35321216 16.07269556 -98.57037354 19.84786987 C-101.5294015 26.89625138 -101.97627675 33.23085753 -101.984375 40.8203125 C-102.00091125 42.0269455 -102.01744751 43.23357849 -102.03448486 44.47677612 C-102.08272426 48.29707045 -102.10428337 52.11696737 -102.125 55.9375 C-102.15317963 58.5416864 -102.18310982 61.14585449 -102.21484375 63.75 C-102.28847745 70.10413393 -102.33819939 76.45805033 -102.375 82.8125 C-108.975 82.8125 -115.575 82.8125 -122.375 82.8125 C-122.375 54.1025 -122.375 25.3925 -122.375 -4.1875 C-116.765 -4.1875 -111.155 -4.1875 -105.375 -4.1875 C-105.045 -0.2275 -104.715 3.7325 -104.375 7.8125 C-103.715 7.8125 -103.055 7.8125 -102.375 7.8125 C-102.106875 7.214375 -101.83875 6.61625 -101.5625 6 C-98.40632271 0.1859892 -92.38104361 -3.29583485 -86.3125 -5.48828125 C-77.29116255 -7.63564748 -68.47128525 -7.34927644 -60.39453125 -2.62109375 C-57.72565599 -0.72655367 -55.51930826 1.34329655 -53.375 3.8125 C-52.776875 4.34875 -52.17875 4.885 -51.5625 5.4375 C-50.375 6.8125 -50.375 6.8125 -50.375 9.8125 C-49.715 9.8125 -49.055 9.8125 -48.375 9.8125 C-48.148125 9.090625 -47.92125 8.36875 -47.6875 7.625 C-45.04767896 1.96824064 -39.73239605 -2.12293524 -34.375 -5.1875 C-22.32869738 -9.40370592 -10.38498892 -7.592159 0 0 Z " fill="#02244E" transform="translate(549.375,406.1875)"/>
<path d="M0 0 C5.53691829 4.76237773 9.52466195 11.69253682 10.9375 18.875 C11.02447056 20.95262639 11.05518427 23.03286293 11.05102539 25.11230469 C11.05091209 27.00381256 11.05091209 27.00381256 11.05079651 28.93353271 C11.04569028 30.30464721 11.0404743 31.67576131 11.03515625 33.046875 C11.03329028 34.45363311 11.03186722 35.86039188 11.03086853 37.26715088 C11.02705744 40.96280727 11.0172392 44.65842413 11.00616455 48.35406494 C10.99592014 52.12796494 10.99136442 55.90187135 10.98632812 59.67578125 C10.97561563 67.07554091 10.95803027 74.47525987 10.9375 81.875 C4.9975 81.875 -0.9425 81.875 -7.0625 81.875 C-7.3925 78.575 -7.7225 75.275 -8.0625 71.875 C-8.7225 71.875 -9.3825 71.875 -10.0625 71.875 C-10.32933594 72.47183594 -10.59617187 73.06867188 -10.87109375 73.68359375 C-13.45584029 78.43783246 -17.97656471 81.71746146 -22.9375 83.75 C-33.32077481 86.69636516 -44.87601693 86.09517431 -54.54296875 81.34765625 C-62.55998738 76.66173993 -66.98901979 70.83976687 -69.671875 61.828125 C-71.29197615 53.72761927 -69.55353375 47.74833338 -65.0625 40.875 C-59.34194845 33.39762931 -50.8802498 28.84968371 -41.6640625 27.15625 C-31.48107131 26.05538609 -21.79180123 26.53379869 -12.0625 29.875 C-11.7325 30.205 -11.4025 30.535 -11.0625 30.875 C-10.95396017 28.64691841 -10.87666693 26.41730068 -10.8125 24.1875 C-10.76609375 22.94613281 -10.7196875 21.70476563 -10.671875 20.42578125 C-11.12889263 16.271491 -12.10806294 14.76657669 -15.0625 11.875 C-21.50994079 8.53614673 -27.86708202 7.94525498 -35.0625 8.875 C-38.83325742 10.35429714 -40.80795072 12.49317608 -43.0625 15.875 C-43.3925 17.525 -43.7225 19.175 -44.0625 20.875 C-50.6625 20.875 -57.2625 20.875 -64.0625 20.875 C-63.02375904 11.5263314 -61.68294273 6.18041254 -54.828125 -0.20703125 C-39.06657298 -12.12858732 -16.00370167 -11.10624782 0 0 Z " fill="#03254F" transform="translate(359.0625,555.125)"/>
<path d="M0 0 C6.6 0 13.2 0 20 0 C20.33 22.77 20.66 45.54 21 69 C30.62531458 58.76569213 30.62531458 58.76569213 39.828125 48.16015625 C51.98411143 33.80971429 51.98411143 33.80971429 62.0625 32.73046875 C68.43689458 32.54737077 74.70047497 33.03381518 81 34 C81 34.66 81 35.32 81 36 C79.54882812 37.42773438 79.54882812 37.42773438 77.53125 39.09375 C72.93791178 42.99970486 68.72259253 47.20049322 64.5 51.5 C59.73205533 56.35479248 54.92349961 61.05707643 49.74414062 65.47460938 C48.08944317 66.92177479 46.5349326 68.42734248 45 70 C46.81002343 74.03696237 49.3600132 77.56981862 51.875 81.1875 C52.6009436 82.23719971 52.6009436 82.23719971 53.34155273 83.30810547 C59.81026415 92.64222876 66.34796352 101.92993403 72.98046875 111.1484375 C73.68127563 112.12369385 73.68127563 112.12369385 74.39624023 113.11865234 C75.28023227 114.34715417 76.16637012 115.57411558 77.05493164 116.79931641 C80 120.88985847 80 120.88985847 80 122 C59.95043953 124.35266837 59.95043953 124.35266837 53.9609375 120.78564453 C50.53683474 117.47629883 48.37021039 113.41096942 46.20068359 109.21240234 C44.11477333 105.36886456 41.52447206 101.87626609 39 98.3125 C38.1016712 96.99779541 37.20567991 95.68148929 36.3125 94.36328125 C34.98477932 92.40864085 33.63928448 90.53588973 32.1875 88.66796875 C31 87 31 87 31 85 C29.89134015 85.91122727 28.78827781 86.82926659 27.6875 87.75 C27.07261719 88.26046875 26.45773437 88.7709375 25.82421875 89.296875 C22.89625003 92.03048177 21.16733317 93.86504458 20.56762695 97.93261719 C20.54144287 99.04282227 20.51525879 100.15302734 20.48828125 101.296875 C20.45283203 102.50214844 20.41738281 103.70742188 20.38085938 104.94921875 C20.35830078 106.20347656 20.33574219 107.45773437 20.3125 108.75 C20.27833984 110.01972656 20.24417969 111.28945313 20.20898438 112.59765625 C20.12651586 115.73145999 20.06158146 118.86571624 20 122 C13.4 122 6.8 122 0 122 C0 81.74 0 41.48 0 0 Z " fill="#01234E" transform="translate(618,367)"/>
<path d="M0 0 C40.21375921 0 40.21375921 0 52.71484375 11.58984375 C60.96939792 20.51652447 64.64543714 32.13205424 64.3046875 44.171875 C63.00177237 56.26560002 59.20188771 66.78134873 49.796875 74.90234375 C34.85066722 85.58940491 18.09753406 83 0 83 C0 55.61 0 28.22 0 0 Z " fill="#EFEFF0" transform="translate(226,387)"/>
<path d="M0 0 C5.07937686 4.24176292 9.76580678 9.78190441 11.5625 16.25 C11.5625 17.57 11.5625 18.89 11.5625 20.25 C5.2925 20.25 -0.9775 20.25 -7.4375 20.25 C-8.7575 17.94 -10.0775 15.63 -11.4375 13.25 C-16.06832254 9.66111253 -20.90111812 9.89506859 -26.53515625 9.8515625 C-29.88457147 10.31137455 -31.76713273 11.1925818 -34.4375 13.25 C-35.68588381 16.65528996 -35.68588381 16.65528996 -35.4375 20.25 C-32.8986612 23.36137876 -30.5786659 24.89026508 -26.8125 26.1875 C-25.85214844 26.51878906 -24.89179687 26.85007812 -23.90234375 27.19140625 C-21.29486417 27.98805447 -18.70351845 28.71873232 -16.06640625 29.40234375 C4.47142045 34.72696549 4.47142045 34.72696549 10.625 42.9375 C14.65750632 49.831785 14.56111165 57.93535492 13.1015625 65.703125 C10.66407096 72.98692326 5.39118776 78.43263622 -1.20703125 82.18359375 C-12.77761302 87.71558819 -27.37943398 88.45596429 -39.5 84.25 C-48.482233 80.20629612 -54.30887625 74.64495917 -58.66015625 65.83984375 C-59.64048126 62.57373581 -59.56613476 59.64014839 -59.4375 56.25 C-56.37122294 56.03334451 -53.32022762 55.87540682 -50.25 55.75 C-48.95352539 55.64945313 -48.95352539 55.64945313 -47.63085938 55.546875 C-45.01405233 55.46666635 -42.95084269 55.50111155 -40.4375 56.25 C-38.64762512 58.14266454 -37.57918281 59.94194575 -36.44262695 62.27954102 C-34.47706266 66.13284911 -31.41656076 67.92364641 -27.4375 69.25 C-20.7913982 69.80031416 -15.23819605 69.70573382 -9.4375 66.25 C-7.57849347 63.90603525 -7.44212042 62.2810228 -7 59.3125 C-7.45425904 56.1326867 -8.09418102 54.52912614 -10.5234375 52.3984375 C-15.04919209 49.68298474 -20.3876074 48.62963698 -25.4375 47.25 C-37.29567772 43.95207875 -48.04791666 40.77455809 -55.4375 30.25 C-58.52470097 24.66363634 -58.03999614 18.71109729 -56.375 12.75 C-53.49814505 4.98918199 -47.98327264 -0.1375513 -40.67578125 -3.78515625 C-27.72782232 -9.36656263 -11.66529488 -8.11691621 0 0 Z " fill="#02244F" transform="translate(539.4375,553.75)"/>
<path d="M0 0 C6.93 0 13.86 0 21 0 C21 34.32 21 68.64 21 104 C39.48 104 57.96 104 77 104 C77 110.27 77 116.54 77 123 C51.59 123 26.18 123 0 123 C0 82.41 0 41.82 0 0 Z " fill="#00234D" transform="translate(205,514)"/>
<path d="M0 0 C6.72463092 5.26329308 10.107868 12.98824685 11.34375 21.31640625 C11.72005301 30.08113048 9.48050597 37.78634465 3.8125 44.5 C-1.92440573 50.32004929 -6.43382503 52.04863482 -14.5 52.4375 C-21.29048025 52.23058786 -25.67421356 50.00863374 -30.75 45.625 C-37.2637678 38.02560424 -39.60513803 30.84996363 -39.37109375 20.9375 C-38.44419821 13.60039002 -35.6159753 7.02334964 -30.1875 1.9375 C-20.58019549 -5.46662566 -10.70507967 -5.56538015 0 0 Z " fill="#EEEFF0" transform="translate(757,421)"/>
<path d="M0 0 C6.52723308 2.84067204 10.01053173 8.49279531 13.09765625 14.65234375 C15.90550588 22.34972462 15.64997089 32.09618347 13.01953125 39.87890625 C10.01517511 46.20836829 4.74826086 50.62358379 -1.35546875 53.87890625 C-8.69906385 55.03084274 -16.12661721 55.67681008 -22.73046875 51.76953125 C-28.53437248 47.31653615 -33.24021317 41.69527463 -34.54296875 34.37890625 C-35.42906833 24.48781967 -35.24597745 15.380082 -28.9296875 7.3203125 C-20.99935947 -1.13753181 -11.1987484 -2.73517818 0 0 Z " fill="#EFF0F0" transform="translate(377.54296875,418.62109375)"/>
<path d="M0 0 C5.41137063 4.50947552 10.51373481 10.36407992 11.20288086 17.64282227 C11.30562352 20.20267743 11.32192542 22.75067179 11.3125 25.3125 C11.32861328 26.17681641 11.34472656 27.04113281 11.36132812 27.93164062 C11.36729175 35.83343927 9.43307817 42.59467018 4.5703125 48.95703125 C0.46638189 52.98950038 -4.83203052 54.6996831 -10.5 54.9375 C-17.37787606 54.58879649 -24.18729943 52.58007282 -29 47.5 C-35.23595581 37.89804531 -36.03149656 28.75867522 -35 17.5 C-34.1547471 14.08223828 -32.94522072 11.42101997 -31 8.5 C-30.63777344 7.93023438 -30.27554687 7.36046875 -29.90234375 6.7734375 C-23.37962825 -2.2035879 -9.94986712 -4.96385353 0 0 Z " fill="#EFF0F0" transform="translate(440,567.5)"/>
<path d="M0 0 C6.93 0 13.86 0 21 0 C21 28.71 21 57.42 21 87 C14.07 87 7.14 87 0 87 C0 58.29 0 29.58 0 0 Z " fill="#032651" transform="translate(577,402)"/>
<path d="M0 0 C3.0625 2.1875 3.0625 2.1875 5.0625 5.1875 C5.81248696 9.76590874 5.48336848 13.32957578 3.4375 17.5 C-1.57626834 23.1734747 -7.03989715 25.70360511 -14.546875 26.4453125 C-21.96017093 26.75249327 -27.24439312 25.40407696 -32.875 20.5 C-34.57306483 16.80421184 -35.1635786 13.24984979 -34.9375 9.1875 C-32.6262764 4.28770597 -29.58836946 1.85927607 -24.9375 -0.8125 C-17.85532068 -3.17322644 -6.83546823 -3.31646792 0 0 Z " fill="#EEEFF0" transform="translate(343.9375,597.8125)"/>
<path d="M0 0 C0.98613281 0.00322266 1.97226563 0.00644531 2.98828125 0.00976562 C4.02082031 0.01814453 5.05335938 0.02652344 6.1171875 0.03515625 C7.67759766 0.04192383 7.67759766 0.04192383 9.26953125 0.04882812 C11.84380712 0.06063673 14.41796896 0.0771055 16.9921875 0.09765625 C18.13914555 2.39157235 18.11557402 3.66102774 18.11244202 6.21047974 C18.11381668 7.07147278 18.11519135 7.93246582 18.11660767 8.81954956 C18.11301239 9.76613434 18.10941711 10.71271912 18.10571289 11.68798828 C18.10585892 12.68314453 18.10600494 13.67830078 18.1061554 14.70361328 C18.10545681 18.00425368 18.09766694 21.30483817 18.08984375 24.60546875 C18.08797938 26.88947519 18.08655557 29.17348203 18.08555603 31.45748901 C18.08173237 37.47777403 18.07190336 43.49803504 18.06085205 49.51831055 C18.05063468 55.65803706 18.04605771 61.79776744 18.04101562 67.9375 C18.03028098 79.99089598 18.01320635 92.04427412 17.9921875 104.09765625 C19.00029984 104.09099442 19.00029984 104.09099442 20.02877808 104.084198 C27.00370158 104.04005991 33.97858563 104.00982958 40.95361328 103.98779297 C43.55909841 103.97771561 46.16457219 103.96405355 48.77001953 103.94677734 C52.50816649 103.92260523 56.24616435 103.91119065 59.984375 103.90234375 C61.15523651 103.89202118 62.32609802 103.88169861 63.53244019 103.87106323 C64.61340973 103.87091217 65.69437927 103.87076111 66.80810547 103.87060547 C67.76296844 103.86616425 68.71783142 103.86172302 69.70162964 103.85714722 C71.9921875 104.09765625 71.9921875 104.09765625 73.9921875 106.09765625 C74.23510742 108.03710938 74.23510742 108.03710938 74.22265625 110.37890625 C74.22072266 111.22066406 74.21878906 112.06242188 74.21679688 112.9296875 C74.20455078 113.81011719 74.19230469 114.69054687 74.1796875 115.59765625 C74.1787207 116.91830078 74.1787207 116.91830078 74.17773438 118.265625 C74.13258807 124.8168551 74.13258807 124.8168551 72.9921875 127.09765625 C47.2521875 127.09765625 21.5121875 127.09765625 -5.0078125 127.09765625 C-5.0078125 126.76765625 -5.0078125 126.43765625 -5.0078125 126.09765625 C20.4021875 126.09765625 45.8121875 126.09765625 71.9921875 126.09765625 C71.9921875 119.49765625 71.9921875 112.89765625 71.9921875 106.09765625 C53.5121875 106.09765625 35.0321875 106.09765625 15.9921875 106.09765625 C15.9921875 71.77765625 15.9921875 37.45765625 15.9921875 2.09765625 C8.7321875 2.09765625 1.4721875 2.09765625 -6.0078125 2.09765625 C-6.0078125 43.01765625 -6.0078125 83.93765625 -6.0078125 126.09765625 C-6.3378125 126.09765625 -6.6678125 126.09765625 -7.0078125 126.09765625 C-7.0078125 84.84765625 -7.0078125 43.59765625 -7.0078125 1.09765625 C-4.50284246 -0.15482877 -2.79927976 -0.01608781 0 0 Z " fill="#FAFCFC" transform="translate(210.0078125,511.90234375)"/>
<path d="M0 0 C2.74260649 1.7858833 3.99805507 2.98589383 5.6875 5.75 C6.35400172 9.47685547 6.29611558 13.01531351 5.6875 16.75 C3.4859026 19.64683868 1.90155538 21.14297231 -1.3125 22.75 C-6.23890344 23.16251687 -10.78967008 23.4026414 -15.375 21.4375 C-17.88812983 19.24864499 -19.20357895 17.56817441 -19.6484375 14.2265625 C-19.75397157 6.52257525 -19.75397157 6.52257525 -17.5625 2.6875 C-12.12884459 -1.99148105 -6.68126518 -2.52123214 0 0 Z " fill="#02234C" transform="translate(594.3125,365.25)"/>
<path d="M0 0 C1.40958984 -0.00193359 1.40958984 -0.00193359 2.84765625 -0.00390625 C3.83636719 -0.00003906 4.82507813 0.00382812 5.84375 0.0078125 C7.32681641 0.00201172 7.32681641 0.00201172 8.83984375 -0.00390625 C9.77957031 -0.00261719 10.71929687 -0.00132812 11.6875 0 C12.55568359 0.00112793 13.42386719 0.00225586 14.31835938 0.00341797 C16.34375 0.1328125 16.34375 0.1328125 17.34375 1.1328125 C17.47135854 2.62519491 17.53202848 4.1233831 17.56494141 5.62084961 C17.58811432 6.57531479 17.61128723 7.52977997 17.63516235 8.51316833 C17.6550119 9.55167435 17.67486145 10.59018036 17.6953125 11.66015625 C17.71846527 12.71940811 17.74161804 13.77865997 17.76547241 14.87001038 C17.81319276 17.11535714 17.85841674 19.3607581 17.90136719 21.60620117 C17.9683962 25.05212404 18.04615734 28.49768891 18.125 31.94335938 C18.16991963 34.11977837 18.21421143 36.29621044 18.2578125 38.47265625 C18.28171051 39.50913803 18.30560852 40.54561981 18.33023071 41.61351013 C18.3470993 42.57112747 18.3639679 43.52874481 18.38134766 44.51538086 C18.39831696 45.36063828 18.41528625 46.20589569 18.43276978 47.07676697 C18.34375 49.1328125 18.34375 49.1328125 17.34375 51.1328125 C16.68375 51.1328125 16.02375 51.1328125 15.34375 51.1328125 C15.34375 34.9628125 15.34375 18.7928125 15.34375 2.1328125 C9.07375 2.1328125 2.80375 2.1328125 -3.65625 2.1328125 C-3.65625 43.0528125 -3.65625 83.9728125 -3.65625 126.1328125 C2.61375 126.1328125 8.88375 126.1328125 15.34375 126.1328125 C15.34375 126.4628125 15.34375 126.7928125 15.34375 127.1328125 C8.74375 127.1328125 2.14375 127.1328125 -4.65625 127.1328125 C-4.80979863 110.72177192 -4.95804734 94.31069606 -5.0992136 77.89954472 C-5.16488943 70.28008898 -5.23245973 62.66065873 -5.30444336 55.04125977 C-5.36715722 48.40255406 -5.42636403 41.76382809 -5.48130554 35.12505335 C-5.51053815 31.60774841 -5.54156339 28.09047934 -5.57678413 24.57322884 C-5.61597356 20.65310637 -5.64733527 16.73294322 -5.67797852 12.81274414 C-5.69092453 11.63814636 -5.70387054 10.46354858 -5.71720886 9.25335693 C-5.72424835 8.19179886 -5.73128784 7.13024078 -5.73854065 6.03651428 C-5.74683679 5.10826875 -5.75513292 4.18002321 -5.76368046 3.22364902 C-5.56080299 -0.7247993 -3.4317834 0.00445852 0 0 Z " fill="#99ADBE" transform="translate(389.65625,510.8671875)"/>
<path d="M0 0 C8.25 0 16.5 0 25 0 C25 0.33 25 0.66 25 1 C17.41 1 9.82 1 2 1 C2 27.4 2 53.8 2 81 C11.9 81 21.8 81 32 81 C22.44082756 85.77958622 10.68747969 83 0 83 C0 55.61 0 28.22 0 0 Z " fill="#F5F9FA" transform="translate(226,387)"/>
<path d="M0 0 C0.66 0 1.32 0 2 0 C2.02312916 7.28421548 2.04091801 14.5684231 2.05181217 21.85266781 C2.05703975 25.23471813 2.06413511 28.6167434 2.07543945 31.9987793 C2.08834267 35.88329777 2.09322924 39.76780597 2.09765625 43.65234375 C2.10281754 44.87211411 2.10797882 46.09188446 2.11329651 47.34861755 C2.11340981 49.03024742 2.11340981 49.03024742 2.11352539 50.74584961 C2.115746 51.73846298 2.11796661 52.73107635 2.12025452 53.75376892 C2 56 2 56 1 57 C-2.47208807 57.25098924 -5.9574062 57.18522096 -9.4375 57.1875 C-10.41783203 57.19974609 -11.39816406 57.21199219 -12.40820312 57.22460938 C-13.34470703 57.22654297 -14.28121094 57.22847656 -15.24609375 57.23046875 C-16.10904053 57.23457764 -16.9719873 57.23868652 -17.86108398 57.24291992 C-20 57 -20 57 -22 55 C-22.17488254 52.56255103 -22.23177405 50.2406392 -22.1953125 47.8046875 C-22.1924826 47.09724396 -22.18965271 46.38980042 -22.18673706 45.66091919 C-22.17553137 43.3987749 -22.15042679 41.13702485 -22.125 38.875 C-22.11497067 37.34245363 -22.10584474 35.80990106 -22.09765625 34.27734375 C-22.07559086 30.51807699 -22.04105896 26.75910536 -22 23 C-21.34 22.67 -20.68 22.34 -20 22 C-20 32.89 -20 43.78 -20 55 C-13.4 55 -6.8 55 0 55 C0 36.85 0 18.7 0 0 Z " fill="#DBE1E8" transform="translate(447,434)"/>
<path d="M0 0 C0.66 0 1.32 0 2 0 C2 18.81 2 37.62 2 57 C7.94 57 13.88 57 20 57 C20.66 57.66 21.32 58.32 22 59 C18.52085059 59.02887814 15.04173169 59.04675687 11.5625 59.0625 C10.07266602 59.07506836 10.07266602 59.07506836 8.55273438 59.08789062 C7.60849609 59.09111328 6.66425781 59.09433594 5.69140625 59.09765625 C4.81685791 59.10289307 3.94230957 59.10812988 3.04125977 59.11352539 C1 59 1 59 0 58 C-0.09376053 56.18944975 -0.1174411 54.37522799 -0.11352539 52.56225586 C-0.11344986 51.40112778 -0.11337433 50.23999969 -0.11329651 49.04368591 C-0.10813522 47.780168 -0.10297394 46.51665009 -0.09765625 45.21484375 C-0.0962413 43.92888809 -0.09482635 42.64293243 -0.09336853 41.31800842 C-0.08954418 37.89356557 -0.07971462 34.46916491 -0.06866455 31.04473877 C-0.05844864 27.55261811 -0.05387053 24.06049066 -0.04882812 20.56835938 C-0.03809227 13.71222222 -0.02101684 6.85611313 0 0 Z " fill="#E3E7EB" transform="translate(482,432)"/>
<path d="M0 0 C18.15 0 36.3 0 55 0 C55 5.94 55 11.88 55 18 C54.34 18 53.68 18 53 18 C53 12.72 53 7.44 53 2 C35.18 2 17.36 2 -1 2 C-0.67 1.34 -0.34 0.68 0 0 Z " fill="#000F3D" transform="translate(227,618)"/>
<path d="M0 0 C0.33 0 0.66 0 1 0 C1.00808685 0.75977142 1.01617371 1.51954285 1.02450562 2.30233765 C1.10236727 9.45391433 1.18963186 16.6052845 1.28752708 23.75661278 C1.33752552 27.43340641 1.38385493 31.11017082 1.421875 34.78710938 C1.45868346 38.33393703 1.50503067 41.88052221 1.55806351 45.4271431 C1.57663122 46.7819151 1.59173038 48.13673913 1.60334396 49.49158859 C1.62016509 51.38560856 1.65033616 53.27949588 1.68115234 55.17333984 C1.69447601 56.25255707 1.70779968 57.33177429 1.7215271 58.44369507 C1.74800507 61.1655864 1.74800507 61.1655864 4 63 C5.65 61.68 7.3 60.36 9 59 C7.64199529 61.96530497 6.07571737 64.29131271 3.9375 66.75 C3.41027344 67.36359375 2.88304687 67.9771875 2.33984375 68.609375 C1.67662109 69.29773438 1.67662109 69.29773438 1 70 C0.67 70 0.34 70 0 70 C0 46.9 0 23.8 0 0 Z " fill="#E1EAED" transform="translate(638,367)"/>
<path d="M0 0 C1.67316284 0.0314209 1.67316284 0.0314209 3.38012695 0.06347656 C4.58862305 0.07636719 5.79711914 0.08925781 7.04223633 0.10253906 C8.30487305 0.13605469 9.56750977 0.16957031 10.8684082 0.20410156 C12.14264648 0.22214844 13.41688477 0.24019531 14.72973633 0.25878906 C17.88087662 0.30599716 21.03051961 0.37183772 24.1809082 0.45410156 C24.5109082 1.44410156 24.8409082 2.43410156 25.1809082 3.45410156 C9.8359082 3.94910156 9.8359082 3.94910156 -5.8190918 4.45410156 C-2.8190918 0.45410156 -2.8190918 0.45410156 0 0 Z " fill="#DBE2E6" transform="translate(562.819091796875,605.5458984375)"/>
<path d="M0 0 C2.91952568 0.01748219 5.72297885 0.13944633 8.625 0.375 C9.42679687 0.43171875 10.22859375 0.4884375 11.0546875 0.546875 C13.03715498 0.68847982 15.01869051 0.84302259 17 1 C17 1.33 17 1.66 17 2 C11.72 2 6.44 2 1 2 C1.020625 3.794375 1.04125 5.58875 1.0625 7.4375 C1.0838122 9.29166122 1.07226502 11.14712498 1 13 C0.67 13.33 0.34 13.66 0 14 C-0.15786308 15.85174706 -0.25107356 17.7090911 -0.31640625 19.56640625 C-0.35830078 20.69111328 -0.40019531 21.81582031 -0.44335938 22.97460938 C-0.48267578 24.15861328 -0.52199219 25.34261719 -0.5625 26.5625 C-0.60568359 27.75037109 -0.64886719 28.93824219 -0.69335938 30.16210938 C-0.79983546 33.10794784 -0.90184841 36.0538743 -1 39 C-1.33 39 -1.66 39 -2 39 C-2.04935824 33.76726669 -2.08569949 28.53466824 -2.10986328 23.30175781 C-2.11993431 21.52080933 -2.13359185 19.73987743 -2.15087891 17.95898438 C-2.17507913 15.40230217 -2.18647184 12.84583815 -2.1953125 10.2890625 C-2.20563507 9.49005524 -2.21595764 8.69104797 -2.22659302 7.86782837 C-2.22699226 5.9104278 -2.12241069 3.95356923 -2 2 C-1.34 1.34 -0.68 0.68 0 0 Z " fill="#E7EBEC" transform="translate(426,400)"/>
<path d="M0 0 C8.58 0 17.16 0 26 0 C26 2 26 2 24.390625 3.65625 C23.33101562 4.56890625 23.33101562 4.56890625 22.25 5.5 C21.55390625 6.1084375 20.8578125 6.716875 20.140625 7.34375 C18.15539208 8.87976963 16.28127955 9.9723966 14 11 C14.97866338 9.85373678 15.95794587 8.70800212 16.9375 7.5625 C17.48277344 6.92441406 18.02804687 6.28632813 18.58984375 5.62890625 C19.36795695 4.73008851 20.15936528 3.84063472 21 3 C14.07 2.67 7.14 2.34 0 2 C0 1.34 0 0.68 0 0 Z " fill="#263351" transform="translate(673,401)"/>
<path d="M0 0 C-1.4562545 0.67119549 -2.91507867 1.33681807 -4.375 2 C-5.18710937 2.37125 -5.99921875 2.7425 -6.8359375 3.125 C-9 4 -9 4 -11 4 C-11.26039063 4.58136719 -11.52078125 5.16273438 -11.7890625 5.76171875 C-13.08128978 8.15025497 -14.49280598 9.86044288 -16.375 11.8125 C-16.96023438 12.43769531 -17.54546875 13.06289063 -18.1484375 13.70703125 C-20 15 -20 15 -22.2265625 14.69921875 C-22.81179688 14.46847656 -23.39703125 14.23773438 -24 14 C-8.45684126 -3.03133351 -8.45684126 -3.03133351 0 0 Z " fill="#081A42" transform="translate(730,403)"/>
<path d="M0 0 C1 2 1 2 -1 9 C-7.6 9 -14.2 9 -21 9 C-20.67 7.02 -20.34 5.04 -20 3 C-19.67 4.32 -19.34 5.64 -19 7 C-13.72 7 -8.44 7 -3 7 C-2.34 5.02 -1.68 3.04 -1 1 C-0.67 0.67 -0.34 0.34 0 0 Z " fill="#112348" transform="translate(316,567)"/>
<path d="M0 0 C2.73370045 2.36092311 3.91097645 4.56538728 5 8 C5 9.32 5 10.64 5 12 C-1.27 12 -7.54 12 -14 12 C-14 11.34 -14 10.68 -14 10 C-8.39 10 -2.78 10 3 10 C2.01 7.69 1.02 5.38 0 3 C0 2.01 0 1.02 0 0 Z " fill="#142649" transform="translate(546,562)"/>
<path d="M0 0 C0.99 0 1.98 0 3 0 C3.99 2.97 4.98 5.94 6 9 C5.01 8.34 4.02 7.68 3 7 C3 6.01 3 5.02 3 4 C2.34 4 1.68 4 1 4 C0.34 6.97 -0.32 9.94 -1 13 C-1.99 13 -2.98 13 -4 13 C-3.50269348 8.02693484 -2.44697666 4.36200187 0 0 Z " fill="#DFE5EA" transform="translate(628,534)"/>
<path d="M0 0 C0.66 0 1.32 0 2 0 C2.33 3.3 2.66 6.6 3 10 C8.94 10 14.88 10 21 10 C21 10.33 21 10.66 21 11 C17.85463232 11.19594676 14.70869386 11.3803401 11.5625 11.5625 C10.66466797 11.61857422 9.76683594 11.67464844 8.84179688 11.73242188 C7.98779297 11.78076172 7.13378906 11.82910156 6.25390625 11.87890625 C5.46314697 11.9260376 4.6723877 11.97316895 3.85766602 12.02172852 C2 12 2 12 1 11 C0.95919217 9.00041636 0.95745644 6.99954746 1 5 C0.01 5.33 -0.98 5.66 -2 6 C-1.49396008 3.83125748 -1.00016187 2.00032373 0 0 Z " fill="#BCCCD8" transform="translate(349,627)"/>
<path d="M0 0 C0.33 0.66 0.66 1.32 1 2 C0.14453125 4.3984375 0.14453125 4.3984375 -1.1875 7.375 C-3.83304499 13.47896692 -5.98861084 19.66243862 -8 26 C-8.66 26 -9.32 26 -10 26 C-4.76595745 4.76595745 -4.76595745 4.76595745 0 0 Z " fill="#122145" transform="translate(696,577)"/>
<path d="M0 0 C9.31538809 3.38295673 15.39815592 10.05654907 21 18 C20.67 18.66 20.34 19.32 20 20 C19.60167969 19.52949219 19.20335937 19.05898438 18.79296875 18.57421875 C17.99826172 17.64029297 17.99826172 17.64029297 17.1875 16.6875 C16.66542969 16.07261719 16.14335937 15.45773437 15.60546875 14.82421875 C14.03698755 12.9856727 14.03698755 12.9856727 12.30078125 11.39453125 C11 10 11 10 11 8 C10.484375 7.773125 9.96875 7.54625 9.4375 7.3125 C6.09033884 5.51018245 2.96109508 3.38717496 0 1 C0 0.67 0 0.34 0 0 Z " fill="#0E1C3F" transform="translate(281,376)"/>
<path d="M0 0 C4.73284518 4.73284518 4.22487338 13.52402938 4.265625 19.87109375 C4 22 4 22 2 25 C1.95101563 24.02160156 1.90203125 23.04320312 1.8515625 22.03515625 C1.44004886 14.81947738 0.69920135 8.03954844 -1 1 C-0.67 0.67 -0.34 0.34 0 0 Z " fill="#D6DEE4" transform="translate(286,412)"/>
<path d="M0 0 C-0.33 0.66 -0.66 1.32 -1 2 C-4.61867559 3.2062252 -7.92506251 3.10816918 -11.6875 3.0625 C-12.38939453 3.05798828 -13.09128906 3.05347656 -13.81445312 3.04882812 C-15.54300538 3.03706927 -17.27151365 3.01913454 -19 3 C-18.67 2.01 -18.34 1.02 -18 0 C-15.75067773 -0.1954625 -13.50049858 -0.38108226 -11.25 -0.5625 C-9.99703125 -0.66691406 -8.7440625 -0.77132813 -7.453125 -0.87890625 C-4.60547636 -0.97876723 -2.65713933 -0.90584295 0 0 Z " fill="#DFE3E7" transform="translate(757,491)"/>
<path d="M0 0 C2 3 2 3 1.375 6.6875 C0.13983176 11.01860941 -1.57104817 15.19527467 -4 19 C-4.66 19.33 -5.32 19.66 -6 20 C-4.22089072 13.24947898 -2.29561809 6.59379663 0 0 Z " fill="#E2E7EB" transform="translate(697,618)"/>
<path d="M0 0 C7 8.44827586 7 8.44827586 7 12 C7.99 12.33 8.98 12.66 10 13 C11.1875 15.5625 11.1875 15.5625 12 18 C6.40327059 14.00233613 2.96821988 9.21010542 0 3 C0 2.01 0 1.02 0 0 Z " fill="#111F42" transform="translate(326,463)"/>
<path d="M0 0 C3.74525799 3.74525799 3.68909949 7.98270909 4 13 C1 11 1 11 0.234375 8.65234375 C0.07453125 7.75644531 -0.0853125 6.86054687 -0.25 5.9375 C-0.42015625 5.03902344 -0.5903125 4.14054688 -0.765625 3.21484375 C-0.84296875 2.48394531 -0.9203125 1.75304687 -1 1 C-0.67 0.67 -0.34 0.34 0 0 Z " fill="#E0E7EA" transform="translate(447,576)"/>
<path d="M0 0 C2.23551759 3.35327639 2.17283528 3.90743657 1.625 7.6875 C1.51414062 8.49574219 1.40328125 9.30398438 1.2890625 10.13671875 C1.19367188 10.75160156 1.09828125 11.36648438 1 12 C0.01 12 -0.98 12 -2 12 C-1.85904936 10.3745692 -1.71207913 8.74965949 -1.5625 7.125 C-1.48128906 6.22007812 -1.40007812 5.31515625 -1.31640625 4.3828125 C-1 2 -1 2 0 0 Z " fill="#E4E9ED" transform="translate(472,598)"/>
<path d="M0 0 C0.99 0 1.98 0 3 0 C3.36463732 1.74784829 3.7163078 3.49840502 4.0625 5.25 C4.25972656 6.22453125 4.45695313 7.1990625 4.66015625 8.203125 C4.98397535 10.868119 4.85503199 12.48871723 4 15 C1.73118159 11.91440696 0.94548054 10.57790624 1.3125 6.6875 C1.539375 5.800625 1.76625 4.91375 2 4 C1.34 4 0.68 4 0 4 C0 2.68 0 1.36 0 0 Z " fill="#E2E9EC" transform="translate(636,569)"/>
<path d="M0 0 C0.66 0.33 1.32 0.66 2 1 C2.33 2.98 2.66 4.96 3 7 C-2.28 7 -7.56 7 -13 7 C-13 6.67 -13 6.34 -13 6 C-6.565 5.505 -6.565 5.505 0 5 C0 3.35 0 1.7 0 0 Z " fill="#012D5A" transform="translate(546,565)"/>
<path d="M0 0 C0.99 0 1.98 0 3 0 C2.67 3.3 2.34 6.6 2 10 C1.01 10 0.02 10 -1 10 C-0.67 6.7 -0.34 3.4 0 0 Z " fill="#E1E7EA" transform="translate(311,435)"/>
<path d="M0 0 C5.61 0 11.22 0 17 0 C17 0.33 17 0.66 17 1 C16.06027344 1.09087891 16.06027344 1.09087891 15.1015625 1.18359375 C14.28429687 1.26738281 13.46703125 1.35117187 12.625 1.4375 C11.81289063 1.51871094 11.00078125 1.59992188 10.1640625 1.68359375 C7.95727195 1.89090114 7.95727195 1.89090114 6 3 C3.6599583 2.71758117 1.32495277 2.38749213 -1 2 C-0.67 1.34 -0.34 0.68 0 0 Z " fill="#071338" transform="translate(732,400)"/>
<path d="M0 0 C1.98 0.495 1.98 0.495 4 1 C3.67 1.66 3.34 2.32 3 3 C1.68 2.67 0.36 2.34 -1 2 C-0.67 1.34 -0.34 0.68 0 0 Z M-17 3 C-11.72 3 -6.44 3 -1 3 C-1 3.33 -1 3.66 -1 4 C-6.28 4 -11.56 4 -17 4 C-17 3.67 -17 3.34 -17 3 Z " fill="#E7E9EB" transform="translate(377,490)"/>
<path d="M0 0 C0.33 0 0.66 0 1 0 C1.66 4.62 2.32 9.24 3 14 C1.68 14 0.36 14 -1 14 C-0.67 9.38 -0.34 4.76 0 0 Z " fill="#D6E0E7" transform="translate(553,607)"/>
<path d="M0 0 C0.66 0.99 1.32 1.98 2 3 C-0.97 5.475 -0.97 5.475 -4 8 C-4.66 7.34 -5.32 6.68 -6 6 C-4.02 4.02 -2.04 2.04 0 0 Z " fill="#193256" transform="translate(650,424)"/>
<path d="M0 0 C0.66 0 1.32 0 2 0 C2.66 0.99 3.32 1.98 4 3 C4.66 3 5.32 3 6 3 C6.66 2.34 7.32 1.68 8 1 C8 4.10551666 7.4606285 5.35261084 6 8 C5.34 8 4.68 8 4 8 C2.21694476 5.36107824 1.00940379 3.02821137 0 0 Z " fill="#E0E6EC" transform="translate(495,408)"/>
<path d="M0 0 C3.93673644 1.31224548 6.22719294 2.91910327 9 6 C8.67 6.99 8.34 7.98 8 9 C7.236875 8.21625 6.47375 7.4325 5.6875 6.625 C3.09108195 3.92742283 3.09108195 3.92742283 0 2 C0 1.34 0 0.68 0 0 Z " fill="#E4E9EC" transform="translate(355,552)"/>
<path d="M0 0 C3.00617269 3.00617269 2.59585316 5.82381598 3 10 C2.34 10 1.68 10 1 10 C0.63883954 8.5225254 0.28624952 7.04295325 -0.0625 5.5625 C-0.25972656 4.73878906 -0.45695312 3.91507812 -0.66015625 3.06640625 C-0.82837891 2.04353516 -0.82837891 2.04353516 -1 1 C-0.67 0.67 -0.34 0.34 0 0 Z " fill="#DFE8EC" transform="translate(286,412)"/>
<path d="M0 0 C0.33 0.66 0.66 1.32 1 2 C0.22265625 4.1640625 0.22265625 4.1640625 -0.9375 6.625 C-1.31777344 7.44226563 -1.69804688 8.25953125 -2.08984375 9.1015625 C-2.39019531 9.72804688 -2.69054687 10.35453125 -3 11 C-4.06192476 7.73635123 -4.07454186 7.17280159 -2.625 3.8125 C-1 1 -1 1 0 0 Z " fill="#091438" transform="translate(696,577)"/>
<path d="M0 0 C0.99 0.33 1.98 0.66 3 1 C3 1.66 3 2.32 3 3 C4.32 3.66 5.64 4.32 7 5 C7 5.99 7 6.98 7 8 C3.75700849 5.61042731 1.49097658 3.7952131 0 0 Z " fill="#19284A" transform="translate(293,625)"/>
<path d="M0 0 C2 2 2 2 2.125 5.625 C2.08375 6.73875 2.0425 7.8525 2 9 C1.01 9 0.02 9 -1 9 C-0.67 6.03 -0.34 3.06 0 0 Z " fill="#DDE3E8" transform="translate(616,580)"/>
<path d="M0 0 C0.66 0.33 1.32 0.66 2 1 C1.67 2.32 1.34 3.64 1 5 C-0.65 5.33 -2.3 5.66 -4 6 C-2.84826645 3.53199953 -1.95216435 1.95216435 0 0 Z " fill="#E6EAED" transform="translate(414,570)"/>
<path d="M0 0 C1.36511719 0.29197266 1.36511719 0.29197266 2.7578125 0.58984375 C3.45648438 0.74582031 4.15515625 0.90179687 4.875 1.0625 C4.875 1.3925 4.875 1.7225 4.875 2.0625 C1.245 2.0625 -2.385 2.0625 -6.125 2.0625 C-6.455 1.4025 -6.785 0.7425 -7.125 0.0625 C-4.4030754 -1.2984623 -2.9418043 -0.64116248 0 0 Z " fill="#1E3A5F" transform="translate(427.125,563.9375)"/>
</svg>
